<svg xmlns="http://www.w3.org/2000/svg" width="256" height="256"><path fill-opacity=".016" d="M0 128.004v128.004l128.25-.254 128.25-.254.254-127.75L257.008 0H0v128.004m.485.496c0 70.4.119 99.053.265 63.672.146-35.38.146-92.98 0-128C.604 29.153.485 58.1.485 128.5" fill="#1976D2" fill-rule="evenodd"/><path fill-opacity=".255" d="M246.803 40.225c-28.013 37.251-51.543 61.203-68.751 69.985-5.441 2.776-7.521 3.29-13.327 3.29-6.649 0-6.991-.123-10.255-3.684-5.318-5.803-6.97-12.799-6.97-29.516 0-7.811-.287-13.886-.637-13.5-1.411 1.549-9.792 25.287-11.988 33.95-2.035 8.031-2.624 9.25-4.47 9.25-1.169 0-3.651 1.017-5.515 2.26-3.089 2.06-3.789 2.156-7.89 1.081-6.457-1.693-25.249-1.597-35.619.183-10.014 1.718-31.17 7.326-31.862 8.446-.25.403 4.369 1.013 10.264 1.354 18.783 1.086 29.829 5.408 33.287 13.022 2.32 5.109 2.351 6.344.313 12.346-2.398 7.065-8.101 14.775-18.026 24.371-16.683 16.129-35.186 29.376-72.194 51.688-4.671 2.816-1.204 2.14 13.938-2.717 43.869-14.074 78.153-33.084 99.51-55.178 7.224-7.474 14.984-18.396 16.03-22.561.703-2.804 2.011-2.968 2.839-.357.984 3.099 7.13 7.88 11.719 9.115 5.55 1.495 13.011.015 22.301-4.422 21.692-10.36 46.721-38.624 66.389-74.969 6.454-11.926 20.586-43.521 19.812-44.294-.23-.23-4.234 4.655-8.898 10.857" fill="#1976D2" fill-rule="evenodd"/><path fill-opacity=".513" d="M246 41.803c-25.746 34.747-52.622 61.654-69.656 69.736-7.175 3.404-15.4 3.855-19.576 1.074-6.72-4.475-9.751-14.543-9.807-32.573-.038-12.103-.092-12.418-1.559-9.04-2.774 6.39-7.518 20.385-9.856 29.074l-2.308 8.575 4.512 1.207c9.114 2.437 14.833 11.916 12.297 20.381-1.561 5.21-6.925 10.462-11.576 11.334-1.909.359-3.471.87-3.471 1.136 0 1.752 4.835 6.678 8.28 8.436 3.364 1.716 5.34 2.01 10.86 1.615 25.907-1.854 60.82-37.715 85.812-88.144 7.165-14.458 15.493-33.635 14.81-34.103-.144-.099-4.087 4.982-8.762 11.292m-155.5 70.88c-7.457.952-24.712 4.556-31.918 6.667l-7.918 2.32 10.918 1.115c24.144 2.468 34.574 9.271 33.179 21.641-1.888 16.748-27.781 41.179-74.487 70.279-8.126 5.063-15.449 9.642-16.274 10.176-.825.534 3.45-.496 9.5-2.29 37.305-11.06 69.881-27.564 93.5-47.371 9.582-8.035 14.977-14.023 20.921-23.218 4.724-7.31 5.189-10.002 1.729-10.002-3.744 0-10.151-5.295-12.001-9.918-2.168-5.42-2.081-8.812.351-13.582 1.1-2.158 2-4.007 2-4.109 0-.102-2.849-.682-6.332-1.288-6.034-1.051-16.711-1.245-23.168-.42" fill="#1976D2" fill-rule="evenodd"/><path fill-opacity=".418" d="M246 42.342c-18.552 25.067-42.51 51.209-56 61.105-13.559 9.947-25.048 13.648-31.697 10.21-8.378-4.333-11.66-13.208-11.745-31.761l-.058-12.604-2.274 5.582c-3.017 7.408-8.822 25.672-9.653 30.376-.608 3.434-.47 3.751 1.632 3.766 3.858.028 10.118 4.284 12.508 8.504 5.186 9.156 1.242 19.676-8.977 23.946-2.055.858-3.736 1.952-3.736 2.431 0 2.154 7.99 7.926 11.884 8.583 24.451 4.131 62.279-30.971 89.094-82.675 6.466-12.468 17.402-36.784 16.795-37.344-.15-.139-3.648 4.308-7.773 9.881" fill="#1976D2" fill-rule="evenodd"/></svg>