<?xml version="1.0" encoding="utf-8"?>
<!-- Generator: Adobe Illustrator 17.0.0, SVG Export Plug-In . SVG Version: 6.00 Build 0)  -->
<!DOCTYPE svg PUBLIC "-//W3C//DTD SVG 1.1//EN" "http://www.w3.org/Graphics/SVG/1.1/DTD/svg11.dtd">
<svg version="1.1" id="Capa_1" xmlns="http://www.w3.org/2000/svg" xmlns:xlink="http://www.w3.org/1999/xlink" x="0px" y="0px"
	 width="500px" height="400px" viewBox="0 0 500 400" enable-background="new 0 0 500 400" xml:space="preserve">
<path fill="#FFFFFF" d="M500.715,9.315l-3.958-2.594l-4.456,1.601c-4,1.438-5.833,4.418-6.602,5.668l-0.072,0.118
	c-19.954,26.964-37.149,48.538-54.109,67.891c-16.955,19.345-37.552,41.586-61.766,59.862c-9.787,7.388-21.628,15.421-35.248,18.981
	c-3.176,0.831-6.177,1.252-8.92,1.252c-9.783,0-16.444-5.142-20.964-16.182c-4.37-10.671-5.492-22.146-6.014-31.964
	c-0.272-5.112-0.224-10.452-0.176-15.618l0.001-0.107c0.03-3.292,0.062-6.697,0.013-10.104l-0.646-44.572l-17.57,40.968
	c-10.062,23.459-17.222,45.256-21.888,66.634c-0.062,0.28-0.122,0.557-0.181,0.832c-7.255,1.246-14.085,4.499-19.628,9.355
	c-7.906-2.555-16.501-4.004-26.856-4.539c-15.377-0.796-31.734,0.412-50.757,3.751c-17.5,3.073-35.392,7.547-53.177,13.298
	l-46.774,15.128l50.863,3.498c10.892,0.747,22.155,1.519,32.717,3.726c12.454,2.603,22.342,5.709,30.119,12.409
	c6.015,5.181,8.131,11.112,6.861,19.231c-1.509,9.653-6.604,17.907-11.39,24.709c-8.283,11.771-18.77,23.024-34.002,36.488
	c-31.398,27.753-65.891,50.518-95.491,69.127c-6.111,3.842-12.128,7.506-18.51,11.391l-0.528,0.322
	c-2.752,1.677-5.525,3.365-8.324,5.081l-28.685,17.586h33.646l0.255,0.007c0.265,0.011,0.486,0.017,0.673,0.017
	c1.017,0,1.975-0.134,2.942-0.413c55.427-16.219,102.484-36.055,143.863-60.642c34.34-20.405,59.771-40.779,80.033-64.12
	c9.015-10.385,15.664-20.115,20.598-30.195c8.313,10.294,20.441,15.893,34.704,15.893c2.925,0,5.939-0.247,8.961-0.733
	c13.881-2.24,27.325-7.735,42.311-17.292c23.317-14.869,44.556-34.744,66.84-62.547c33.018-41.195,60.782-90.125,84.875-149.581
	C507.178,17.046,504.586,11.858,500.715,9.315z"/>
<g>
	<circle fill="#BBBCBF" cx="264.758" cy="191.559" r="30.396"/>
	<path d="M495.428,17.524c-1.167,0.42-1.549,1.546-2.187,2.409c-17.402,23.518-35.38,46.581-54.669,68.591
		c-19.384,22.118-39.615,43.393-63.185,61.182c-11.756,8.873-24.084,16.803-38.566,20.589c-19.235,5.029-33.561-2.176-41.071-20.518
		c-4.601-11.237-6.07-23.055-6.707-35.056c-0.464-8.735-0.048-17.462-0.175-26.196c-9.044,21.088-16.465,42.592-21.339,64.922
		c-0.447,2.046-0.689,3.218-0.46,3.95c15.399,0.938,28.053,12.004,31.399,26.624c0.502,2.022,0.808,4.097,0.876,6.2
		c0.033,1.004,0.02,2.003-0.038,2.994c-0.705,16.487-13.01,29.966-28.964,32.48c0.027,0.542,0.404,1.239,0.994,2.186
		c7.686,12.327,21.366,17.95,37.34,15.373c14.164-2.285,26.78-8.31,38.718-15.924c25.282-16.123,45.928-37.264,64.537-60.481
		c35.78-44.64,62.193-94.629,83.581-147.447C495.764,18.789,496.359,18.135,495.428,17.524z"/>
	<path fill="#EC1C24" d="M235.826,210.019c-3.602-4.637-5.324-10.001-5.205-16.195c-0.042-0.696-0.07-1.395-0.07-2.102
		c0-7.314,2.289-14.089,6.181-19.663c0.141-0.294,0.27-0.581,0.416-0.877c-8.453-2.955-17.196-4.179-26.045-4.636
		c-16.352-0.844-32.542,0.797-48.625,3.621c-17.591,3.089-34.865,7.473-51.897,12.981c12.025,0.828,24.03,1.563,35.826,4.028
		c12.392,2.589,24.495,5.998,34.372,14.508c8.555,7.37,11.781,16.783,10.045,27.891c-1.682,10.758-6.862,19.974-13.005,28.704
		c-10.08,14.326-22.414,26.591-35.478,38.138c-29.965,26.486-62.952,48.82-96.725,70.051c-8.975,5.642-18.068,11.098-27.454,16.851
		c0.727,0,0.984,0.057,1.205-0.008c49.506-14.486,97.213-33.268,141.68-59.691c28.785-17.104,55.611-36.72,77.714-62.182
		c9.281-10.692,17.263-22.238,22.493-35.521C250.534,224.774,241.295,218.705,235.826,210.019z"/>
</g>
</svg>
