<svg width="350" height="350" xmlns="http://www.w3.org/2000/svg">

 <g>
  <title>Layer 1</title>
  <g>
   <defs transform="translate(0 -12.2727) translate(1.36365 0) translate(20 0) translate(-242.727 -114.545) translate(-3.63636 1.81818) translate(-250 0) translate(0 22.272)">
    <clipPath id="svg_2">
     <rect x="-474.99999" y="-102.72798" fill="none" height="550" width="1300" class="cls-1"/>
    </clipPath>
   </defs>
   <g clip-path="url(#svg_2)" class="cls-2">
    <path d="m290.66501,304.18902l7.084,-18.578l7.073,18.578l-14.157,0zm14.435,-29.127l-14.71,0l-20.558,50.373l12.744,0l4.683,-12.293l20.972,0l4.685,12.293l12.738,0l-20.554,-50.373zm-103.76,41.615c-8.3,0 -15.019,-7.49 -15.019,-16.734s6.718,-16.738 15.019,-16.738s15.018,7.494 15.018,16.738s-6.73,16.734 -15.018,16.734m0,-43.342a26.606,26.606 0 1 0 26.607,26.608a26.611,26.611 0 0 0 -26.607,-26.608m-104.985,43.342c-8.288,0 -15.011,-7.49 -15.011,-16.734s6.723,-16.738 15.011,-16.738s15.022,7.494 15.022,16.738s-6.724,16.734 -15.022,16.734m0,-43.342a26.606,26.606 0 1 0 26.606,26.608a26.6,26.6 0 0 0 -26.606,-26.608m65.76,1.727l-13.036,20.38l-13.046,-20.38l-12.749,0l20.18,31.589l0,18.784l11.222,0l0,-18.78l20.179,-31.593l-12.75,0zm110.4,0l-43.063,0l0,9.659l15.948,0l0,40.714l11.234,0l0,-40.714l15.88,0l0.001,-9.659zm-248.169,9.659l15.954,0l0,40.714l11.229,0l0,-40.714l15.884,0l0,-9.659l-43.067,0l0,9.659z"/>
    <rect fill="#eb0a1e" height="201.396" width="201.396" y="23.45302" x="74.34301" class="cls-3"/>
    <path fill="#fff" d="m208.62701,80.38802a120.349,120.349 0 0 0 -67.169,0c-24.86,7.992 -41.941,24.589 -41.941,43.769c0,26.982 33.813,48.86 75.528,48.86s75.519,-21.878 75.519,-48.86c0,-19.18 -17.081,-35.772 -41.937,-43.769m-33.582,71.621c-6.226,0 -11.309,-12.238 -11.607,-27.618c3.743,0.337 7.626,0.518 11.607,0.518s7.857,-0.181 11.605,-0.518c-0.3,15.38 -5.382,27.618 -11.605,27.618m-10.823,-39.658c1.7,-10.8 5.9,-18.441 10.823,-18.441s9.119,7.646 10.815,18.441c-3.458,0.313 -7.08,0.486 -10.815,0.486s-7.36,-0.173 -10.823,-0.486m28.253,-0.814c-2.527,-16.943 -9.375,-29.089 -17.43,-29.089s-14.91,12.146 -17.435,29.089c-15.342,-2.395 -26.065,-7.846 -26.065,-14.2c0,-8.556 19.476,-15.492 43.5,-15.492s43.5,6.936 43.5,15.492c0,6.35 -10.723,11.8 -26.065,14.2m-81.94,10.835c0,-8.272 3.183,-16.023 8.738,-22.692a10.371,10.371 0 0 0 -0.1,1.4c0,10.405 15.63,19.25 37.421,22.5c-0.017,0.785 -0.03,1.573 -0.03,2.368c0,19.347 5.366,35.735 12.785,41.384c-32.962,-2.015 -58.816,-21.37 -58.816,-44.96m70.191,44.96c7.416,-5.649 12.781,-22.035 12.781,-41.384c0,-0.795 -0.009,-1.583 -0.026,-2.368c21.786,-3.252 37.418,-12.1 37.418,-22.5a10.374,10.374 0 0 0 -0.1,-1.4c5.554,6.669 8.738,14.42 8.738,22.692c0,23.59 -25.854,42.945 -58.81,44.96" class="cls-4"/>
   </g>
  </g>
 </g>
</svg>